<?xml version="1.0" encoding="UTF-8" standalone="no"?>
<!-- Created with Inkscape (http://www.inkscape.org/) -->

<svg
   xmlns:dc="http://purl.org/dc/elements/1.1/"
   xmlns:cc="http://creativecommons.org/ns#"
   xmlns:rdf="http://www.w3.org/1999/02/22-rdf-syntax-ns#"
   xmlns:svg="http://www.w3.org/2000/svg"
   xmlns="http://www.w3.org/2000/svg"
   xmlns:sodipodi="http://sodipodi.sourceforge.net/DTD/sodipodi-0.dtd"
   xmlns:inkscape="http://www.inkscape.org/namespaces/inkscape"
   width="3.2909031cm"
   height="4.2135901cm"
   viewBox="0 0 116.6068 149.30044"
   id="svg2"
   version="1.1"
   inkscape:version="0.92.3 (2405546, 2018-03-11)"
   sodipodi:docname="logo 5 - Bombillo.svg"
   inkscape:export-filename="D:\esenco\Procesos\Comercial\Publicidad y mercadeo\Registros\Elementos publicitarios\Editables\Logos\logo 5 - full color 777x995.png"
   inkscape:export-xdpi="600.08057"
   inkscape:export-ydpi="600.08057">
  <defs
     id="defs4">
    <style
       id="style6"
       type="text/css">
   
    .str1 {stroke:#1F1A17;stroke-width:0.0762}
    .str0 {stroke:#1F1A17;stroke-width:3.3278;stroke-linecap:round;stroke-linejoin:round}
    .fil2 {fill:none}
    .fil3 {fill:#1F1A17}
    .fil6 {fill:#84C225}
    .fil4 {fill:#AAA9A9}
    .fil5 {fill:#A2CE43}
    .fil1 {fill:#1F1A17;fill-rule:nonzero}
    .fil0 {fill:#605D5C;fill-rule:nonzero}
   
  </style>
    <clipPath
       id="id0">
      <path
         id="path9"
         d="m 24.988,112.512 h 39.6373 l 72.8067,5.6927 H 97.7947 Z"
         inkscape:connector-curvature="0" />
    </clipPath>
    <clipPath
       id="id1">
      <path
         id="path12"
         d="m 100.553,102.713 c -0.2119,-0.2001 -0.4282,-1.0356 0.3961,-2.8442 1.0244,-2.2476 2.245,-4.3268 1.8012,-11.0756 -0.4438,-6.7489 2.02,-12.6575 7.798,-15.6093 5.7781,-2.9518 10.7011,-0.9187 12.2576,-0.2684 1.5564,0.6503 6.0637,3.93 7.498,8.3698 1.4344,4.4399 1.2171,7.4689 -1.3085,12.1372 -2.5255,4.6683 -11.0819,8.0568 -12.5141,10.3855 -0.3357,0.5457 -0.6532,0.7273 -0.8444,1.027 -0.6247,0.9791 -0.6286,1.15 -1.3829,2.2022 -0.9852,1.3743 -1.9805,1.7007 -2.3497,1.7215 -0.3691,0.0209 0.1344,0.2456 -0.2368,0.3618 -0.3712,0.1163 -0.5975,0.467 -0.7183,0.531 -0.1208,0.064 -0.5836,0.999 -0.7106,0.9949 -0.1271,-0.004 -0.252,0.1869 -0.152,0.2411 0.1,0.0541 0.3983,0.8384 -0.3308,0.9102 -0.485,0.0478 -0.4707,0.3278 -0.4707,0.3278 0,0 0.576,1.1109 -0.7218,1.28 -0.0859,0.0112 -0.1834,0.2053 -0.081,0.2852 0,0 0.5155,1.0389 -0.449,1.1863 -0.6705,0.1025 -0.2696,0.2552 -0.363,0.3594 -0.0438,0.0489 -0.006,0.0789 -0.004,0.0885 0.004,0.0219 0.5909,0.9958 -0.691,1.1639 -1.2819,0.168 -1.1527,0.4913 -2.8526,0.9401 -1.6998,0.4487 -1.9064,0.1442 -2.7509,0.1774 -0.8445,0.0332 -0.2774,0.7928 -1.9121,-0.1823 -1.6347,-0.9751 -0.4358,-0.8922 -0.4282,-0.9666 0.0076,-0.0744 -0.6768,-0.9696 -0.9854,-1.2636 -0.3087,-0.2941 -0.4127,-0.263 -0.3206,-0.7849 0.0921,-0.522 -0.561,-1.2779 -0.6853,-1.9102 -0.1243,-0.6324 -0.3315,-1.2109 -0.3164,-1.5704 0.0151,-0.3596 0.3665,-0.4417 0.4323,-0.4478 0.0658,-0.006 0.2105,-0.1722 0.1909,-0.3286 -0.0195,-0.1564 -0.5523,-0.8027 0.2741,-1.1087 0.8264,-0.306 0.4463,-0.6698 0.4316,-0.7383 -0.0147,-0.0684 -0.3432,-0.5208 0.3564,-0.7073 0.6996,-0.1866 0.7179,-0.4026 0.6935,-0.5204 -0.0243,-0.1179 -0.5612,-0.8046 0.3864,-1.2431 0.5277,-0.2441 0.382,-0.3249 0.2358,-0.5554 -0.1462,-0.2305 0.2641,-0.9164 0.514,-1.113 0.2499,-0.1967 0.2929,-0.3259 0.2671,-0.5103 -0.0258,-0.1844 -0.1746,-0.6057 -0.0969,-0.7161 0.0389,-0.0553 0.0909,-0.1013 0.1286,-0.0855 0.0693,0.0292 0.1254,-0.0369 0.0154,-0.1408 z"
         inkscape:connector-curvature="0" />
    </clipPath>
    <mask
       id="id2">
      <linearGradient
         y2="97.900902"
         x2="126.133"
         y1="91.644897"
         x1="101.779"
         gradientUnits="userSpaceOnUse"
         id="id3">
        <stop
           id="stop16"
           style="stop-opacity:1; stop-color:white"
           offset="0" />
        <stop
           id="stop18"
           style="stop-opacity:0.501961; stop-color:white"
           offset="0.309804" />
        <stop
           id="stop20"
           style="stop-opacity:0; stop-color:white"
           offset="1" />
      </linearGradient>
      <rect
         id="rect22"
         height="46.291302"
         width="34.4673"
         y="71.627197"
         x="96.722504"
         style="fill:url(#id3)" />
    </mask>
    <clipPath
       id="id4">
      <path
         id="path25"
         d="m 100.553,102.713 c -0.2119,-0.2001 -0.4282,-1.0356 0.3961,-2.8442 1.0244,-2.2476 2.245,-4.3268 1.8012,-11.0756 -0.4438,-6.7489 2.02,-12.6575 7.798,-15.6093 5.7781,-2.9518 10.7011,-0.9187 12.2576,-0.2684 1.5564,0.6503 6.0637,3.93 7.498,8.3698 1.4344,4.4399 1.2171,7.4689 -1.3085,12.1372 -2.5255,4.6683 -11.0819,8.0568 -12.5141,10.3855 -0.3357,0.5457 -0.6532,0.7273 -0.8444,1.027 -0.6247,0.9791 -0.6286,1.15 -1.3829,2.2022 -0.9852,1.3743 -1.9805,1.7007 -2.3497,1.7215 -0.3691,0.0209 0.1344,0.2456 -0.2368,0.3618 -0.3712,0.1163 -0.5975,0.467 -0.7183,0.531 -0.1208,0.064 -0.5836,0.999 -0.7106,0.9949 -0.1271,-0.004 -0.252,0.1869 -0.152,0.2411 0.1,0.0541 0.3983,0.8384 -0.3308,0.9102 -0.485,0.0478 -0.4707,0.3278 -0.4707,0.3278 0,0 0.576,1.1109 -0.7218,1.28 -0.0859,0.0112 -0.1834,0.2053 -0.081,0.2852 0,0 0.5155,1.0389 -0.449,1.1863 -0.6705,0.1025 -0.2696,0.2552 -0.363,0.3594 -0.0438,0.0489 -0.006,0.0789 -0.004,0.0885 0.004,0.0219 0.5909,0.9958 -0.691,1.1639 -1.2819,0.168 -1.1527,0.4913 -2.8526,0.9401 -1.6998,0.4487 -1.9064,0.1442 -2.7509,0.1774 -0.8445,0.0332 -0.2774,0.7928 -1.9121,-0.1823 -1.6347,-0.9751 -0.4358,-0.8922 -0.4282,-0.9666 0.0076,-0.0744 -0.6768,-0.9696 -0.9854,-1.2636 -0.3087,-0.2941 -0.4127,-0.263 -0.3206,-0.7849 0.0921,-0.522 -0.561,-1.2779 -0.6853,-1.9102 -0.1243,-0.6324 -0.3315,-1.2109 -0.3164,-1.5704 0.0151,-0.3596 0.3665,-0.4417 0.4323,-0.4478 0.0658,-0.006 0.2105,-0.1722 0.1909,-0.3286 -0.0195,-0.1564 -0.5523,-0.8027 0.2741,-1.1087 0.8264,-0.306 0.4463,-0.6698 0.4316,-0.7383 -0.0147,-0.0684 -0.3432,-0.5208 0.3564,-0.7073 0.6996,-0.1866 0.7179,-0.4026 0.6935,-0.5204 -0.0243,-0.1179 -0.5612,-0.8046 0.3864,-1.2431 0.5277,-0.2441 0.382,-0.3249 0.2358,-0.5554 -0.1462,-0.2305 0.2641,-0.9164 0.514,-1.113 0.2499,-0.1967 0.2929,-0.3259 0.2671,-0.5103 -0.0258,-0.1844 -0.1746,-0.6057 -0.0969,-0.7161 0.0389,-0.0553 0.0909,-0.1013 0.1286,-0.0855 0.0693,0.0292 0.1254,-0.0369 0.0154,-0.1408 z"
         inkscape:connector-curvature="0" />
    </clipPath>
    <style
       id="style6-8"
       type="text/css">
   
    .str1 {stroke:#1F1A17;stroke-width:0.0762}
    .str0 {stroke:#1F1A17;stroke-width:3.3278;stroke-linecap:round;stroke-linejoin:round}
    .fil2 {fill:none}
    .fil3 {fill:#1F1A17}
    .fil6 {fill:#84C225}
    .fil4 {fill:#AAA9A9}
    .fil5 {fill:#A2CE43}
    .fil1 {fill:#1F1A17;fill-rule:nonzero}
    .fil0 {fill:#605D5C;fill-rule:nonzero}
   
  </style>
    <clipPath
       id="id0-1">
      <path
         id="path9-8"
         d="m 24.988,112.512 h 39.6373 l 72.8067,5.6927 H 97.7947 Z"
         inkscape:connector-curvature="0" />
    </clipPath>
    <clipPath
       id="id1-9">
      <path
         id="path12-1"
         d="m 100.553,102.713 c -0.2119,-0.2001 -0.4282,-1.0356 0.3961,-2.8442 1.0244,-2.2476 2.245,-4.3268 1.8012,-11.0756 -0.4438,-6.7489 2.02,-12.6575 7.798,-15.6093 5.7781,-2.9518 10.7011,-0.9187 12.2576,-0.2684 1.5564,0.6503 6.0637,3.93 7.498,8.3698 1.4344,4.4399 1.2171,7.4689 -1.3085,12.1372 -2.5255,4.6683 -11.0819,8.0568 -12.5141,10.3855 -0.3357,0.5457 -0.6532,0.7273 -0.8444,1.027 -0.6247,0.9791 -0.6286,1.15 -1.3829,2.2022 -0.9852,1.3743 -1.9805,1.7007 -2.3497,1.7215 -0.3691,0.0209 0.1344,0.2456 -0.2368,0.3618 -0.3712,0.1163 -0.5975,0.467 -0.7183,0.531 -0.1208,0.064 -0.5836,0.999 -0.7106,0.9949 -0.1271,-0.004 -0.252,0.1869 -0.152,0.2411 0.1,0.0541 0.3983,0.8384 -0.3308,0.9102 -0.485,0.0478 -0.4707,0.3278 -0.4707,0.3278 0,0 0.576,1.1109 -0.7218,1.28 -0.0859,0.0112 -0.1834,0.2053 -0.081,0.2852 0,0 0.5155,1.0389 -0.449,1.1863 -0.6705,0.1025 -0.2696,0.2552 -0.363,0.3594 -0.0438,0.0489 -0.006,0.0789 -0.004,0.0885 0.004,0.0219 0.5909,0.9958 -0.691,1.1639 -1.2819,0.168 -1.1527,0.4913 -2.8526,0.9401 -1.6998,0.4487 -1.9064,0.1442 -2.7509,0.1774 -0.8445,0.0332 -0.2774,0.7928 -1.9121,-0.1823 -1.6347,-0.9751 -0.4358,-0.8922 -0.4282,-0.9666 0.0076,-0.0744 -0.6768,-0.9696 -0.9854,-1.2636 -0.3087,-0.2941 -0.4127,-0.263 -0.3206,-0.7849 0.0921,-0.522 -0.561,-1.2779 -0.6853,-1.9102 -0.1243,-0.6324 -0.3315,-1.2109 -0.3164,-1.5704 0.0151,-0.3596 0.3665,-0.4417 0.4323,-0.4478 0.0658,-0.006 0.2105,-0.1722 0.1909,-0.3286 -0.0195,-0.1564 -0.5523,-0.8027 0.2741,-1.1087 0.8264,-0.306 0.4463,-0.6698 0.4316,-0.7383 -0.0147,-0.0684 -0.3432,-0.5208 0.3564,-0.7073 0.6996,-0.1866 0.7179,-0.4026 0.6935,-0.5204 -0.0243,-0.1179 -0.5612,-0.8046 0.3864,-1.2431 0.5277,-0.2441 0.382,-0.3249 0.2358,-0.5554 -0.1462,-0.2305 0.2641,-0.9164 0.514,-1.113 0.2499,-0.1967 0.2929,-0.3259 0.2671,-0.5103 -0.0258,-0.1844 -0.1746,-0.6057 -0.0969,-0.7161 0.0389,-0.0553 0.0909,-0.1013 0.1286,-0.0855 0.0693,0.0292 0.1254,-0.0369 0.0154,-0.1408 z"
         inkscape:connector-curvature="0" />
    </clipPath>
    <mask
       id="id2-1">
      <linearGradient
         y2="97.900902"
         x2="126.133"
         y1="91.644897"
         x1="101.779"
         gradientUnits="userSpaceOnUse"
         id="linearGradient4626">
        <stop
           id="stop16-7"
           style="stop-opacity:1; stop-color:white"
           offset="0" />
        <stop
           id="stop18-2"
           style="stop-opacity:0.501961; stop-color:white"
           offset="0.309804" />
        <stop
           id="stop20-2"
           style="stop-opacity:0; stop-color:white"
           offset="1" />
      </linearGradient>
      <rect
         id="rect22-5"
         height="46.291302"
         width="34.4673"
         y="71.627197"
         x="96.722504"
         style="fill:url(#id3)" />
    </mask>
    <clipPath
       id="id4-2">
      <path
         id="path25-0"
         d="m 100.553,102.713 c -0.2119,-0.2001 -0.4282,-1.0356 0.3961,-2.8442 1.0244,-2.2476 2.245,-4.3268 1.8012,-11.0756 -0.4438,-6.7489 2.02,-12.6575 7.798,-15.6093 5.7781,-2.9518 10.7011,-0.9187 12.2576,-0.2684 1.5564,0.6503 6.0637,3.93 7.498,8.3698 1.4344,4.4399 1.2171,7.4689 -1.3085,12.1372 -2.5255,4.6683 -11.0819,8.0568 -12.5141,10.3855 -0.3357,0.5457 -0.6532,0.7273 -0.8444,1.027 -0.6247,0.9791 -0.6286,1.15 -1.3829,2.2022 -0.9852,1.3743 -1.9805,1.7007 -2.3497,1.7215 -0.3691,0.0209 0.1344,0.2456 -0.2368,0.3618 -0.3712,0.1163 -0.5975,0.467 -0.7183,0.531 -0.1208,0.064 -0.5836,0.999 -0.7106,0.9949 -0.1271,-0.004 -0.252,0.1869 -0.152,0.2411 0.1,0.0541 0.3983,0.8384 -0.3308,0.9102 -0.485,0.0478 -0.4707,0.3278 -0.4707,0.3278 0,0 0.576,1.1109 -0.7218,1.28 -0.0859,0.0112 -0.1834,0.2053 -0.081,0.2852 0,0 0.5155,1.0389 -0.449,1.1863 -0.6705,0.1025 -0.2696,0.2552 -0.363,0.3594 -0.0438,0.0489 -0.006,0.0789 -0.004,0.0885 0.004,0.0219 0.5909,0.9958 -0.691,1.1639 -1.2819,0.168 -1.1527,0.4913 -2.8526,0.9401 -1.6998,0.4487 -1.9064,0.1442 -2.7509,0.1774 -0.8445,0.0332 -0.2774,0.7928 -1.9121,-0.1823 -1.6347,-0.9751 -0.4358,-0.8922 -0.4282,-0.9666 0.0076,-0.0744 -0.6768,-0.9696 -0.9854,-1.2636 -0.3087,-0.2941 -0.4127,-0.263 -0.3206,-0.7849 0.0921,-0.522 -0.561,-1.2779 -0.6853,-1.9102 -0.1243,-0.6324 -0.3315,-1.2109 -0.3164,-1.5704 0.0151,-0.3596 0.3665,-0.4417 0.4323,-0.4478 0.0658,-0.006 0.2105,-0.1722 0.1909,-0.3286 -0.0195,-0.1564 -0.5523,-0.8027 0.2741,-1.1087 0.8264,-0.306 0.4463,-0.6698 0.4316,-0.7383 -0.0147,-0.0684 -0.3432,-0.5208 0.3564,-0.7073 0.6996,-0.1866 0.7179,-0.4026 0.6935,-0.5204 -0.0243,-0.1179 -0.5612,-0.8046 0.3864,-1.2431 0.5277,-0.2441 0.382,-0.3249 0.2358,-0.5554 -0.1462,-0.2305 0.2641,-0.9164 0.514,-1.113 0.2499,-0.1967 0.2929,-0.3259 0.2671,-0.5103 -0.0258,-0.1844 -0.1746,-0.6057 -0.0969,-0.7161 0.0389,-0.0553 0.0909,-0.1013 0.1286,-0.0855 0.0693,0.0292 0.1254,-0.0369 0.0154,-0.1408 z"
         inkscape:connector-curvature="0" />
    </clipPath>
  </defs>
  <sodipodi:namedview
     id="base"
     pagecolor="#ffffff"
     bordercolor="#666666"
     borderopacity="1.0"
     inkscape:pageopacity="0.0"
     inkscape:pageshadow="2"
     inkscape:zoom="0.9899495"
     inkscape:cx="-78.06003"
     inkscape:cy="191.1931"
     inkscape:document-units="px"
     inkscape:current-layer="layer1"
     showgrid="false"
     inkscape:window-width="1299"
     inkscape:window-height="713"
     inkscape:window-x="67"
     inkscape:window-y="27"
     inkscape:window-maximized="1"
     units="cm"
     fit-margin-top="0.3"
     fit-margin-left="0.3"
     fit-margin-right="0.3"
     fit-margin-bottom="0.3" />
  <metadata
     id="metadata7">
    <rdf:RDF>
      <cc:Work
         rdf:about="">
        <dc:format>image/svg+xml</dc:format>
        <dc:type
           rdf:resource="http://purl.org/dc/dcmitype/StillImage" />
        <dc:title></dc:title>
      </cc:Work>
    </rdf:RDF>
  </metadata>
  <g
     inkscape:label="Capa 1"
     inkscape:groupmode="layer"
     id="layer1"
     transform="translate(-114.56248,-88.880703)">
    <path
       style="clip-rule:evenodd;fill:#ffffff;fill-opacity:1;fill-rule:evenodd;stroke-width:2.75974822;image-rendering:optimizeQuality;shape-rendering:geometricPrecision;text-rendering:geometricPrecision"
       d="m 135.98786,185.30051 c -0.58479,-0.55221 -1.18171,-2.85797 1.09316,-7.84925 2.82708,-6.20282 6.19564,-11.94089 4.97084,-30.56589 -1.22478,-18.62527 5.57471,-34.93152 21.52059,-43.07773 15.94608,-8.146214 29.53233,-2.53539 33.8279,-0.74072 4.29526,1.79468 16.73425,10.84582 20.69257,23.09857 3.95861,12.25297 3.35889,20.61227 -3.61112,33.49559 -6.96977,12.88333 -30.58327,22.23472 -34.53575,28.66136 -0.92647,1.506 -1.80269,2.00716 -2.33034,2.83425 -1.72406,2.70208 -1.73481,3.17372 -3.81648,6.07752 -2.7189,3.79273 -5.46568,4.69351 -6.48461,4.75093 -1.01861,0.0579 0.37093,0.67777 -0.65345,0.99846 -1.02445,0.32094 -1.64898,1.28881 -1.98234,1.46544 -0.33343,0.17662 -1.61063,2.75698 -1.96112,2.74567 -0.35074,-0.0112 -0.69543,0.51581 -0.41941,0.66538 0.27593,0.1493 1.09916,2.31376 -0.91298,2.51191 -1.33849,0.1319 -1.29902,0.90465 -1.29902,0.90465 0,0 1.58963,3.0658 -1.99192,3.53247 -0.2371,0.031 -0.50621,0.56661 -0.22359,0.78708 0,0 1.42267,2.86712 -1.23915,3.2739 -1.85039,0.28288 -0.744,0.70429 -1.00179,0.99185 -0.12101,0.13491 -0.0162,0.21774 -0.0112,0.24425 0.0112,0.0606 1.63068,2.74815 -1.90701,3.21207 -3.53772,0.46363 -3.18118,1.35585 -7.87251,2.59443 -4.69102,1.23831 -5.26116,0.39796 -7.59177,0.48958 -2.33062,0.0915 -0.76557,2.18792 -5.27691,-0.50311 -4.51139,-2.69103 -1.2027,-2.46225 -1.18174,-2.66756 0.0221,-0.20534 -1.86781,-2.67588 -2.71947,-3.48722 -0.85193,-0.81165 -1.13892,-0.72581 -0.88477,-2.16613 0.25418,-1.4406 -1.54822,-3.52668 -1.89127,-5.27168 -0.34301,-1.74524 -0.91482,-3.34177 -0.87315,-4.33391 0.0414,-0.9924 1.01146,-1.21897 1.19305,-1.2358 0.18158,-0.0164 0.58091,-0.47521 0.52682,-0.90687 -0.054,-0.4316 -1.52422,-2.21522 0.75643,-3.05972 2.28065,-0.84448 1.23168,-1.84848 1.19112,-2.03751 -0.0403,-0.18877 -0.94716,-1.4373 0.98358,-1.95199 1.93072,-0.51496 1.9812,-1.11107 1.91386,-1.43617 -0.0669,-0.32537 -1.54876,-2.22047 1.06637,-3.43064 1.45633,-0.67365 1.05424,-0.89663 0.65077,-1.53277 -0.40347,-0.63611 0.72885,-2.52904 1.41849,-3.0716 0.68967,-0.54282 0.80835,-0.89939 0.73715,-1.40831 -0.0711,-0.50888 -0.48186,-1.67155 -0.26743,-1.97624 0.10725,-0.15261 0.25088,-0.27957 0.35491,-0.23595 0.19124,0.0808 0.34605,-0.1019 0.0423,-0.38859 z"
       id="path12-5"
       inkscape:connector-curvature="0" />
    <g
       id="g4426"
       transform="matrix(0.39393456,0,0,0.39393456,-29.20635,-78.721675)">
      <g
         transform="matrix(7.016388,0,0,7.0163876,-286.53276,-49.896224)"
         id="g100"
         clip-path="url(#id1)"
         style="clip-rule:evenodd;fill-rule:evenodd;image-rendering:optimizeQuality;shape-rendering:geometricPrecision;text-rendering:geometricPrecision">
        <path
           inkscape:connector-curvature="0"
           id="polygon102"
           d="M 131.19,117.919 H 96.7225 V 71.6272 H 131.19 Z"
           mask="url(#id2)"
           style="fill:#aaa9a9" />
      </g>
      <g
         transform="matrix(7.016388,0,0,7.0163876,-286.70613,-49.896199)"
         id="g104"
         clip-path="url(#id4)"
         style="clip-rule:evenodd;fill-rule:evenodd;image-rendering:optimizeQuality;shape-rendering:geometricPrecision;text-rendering:geometricPrecision">
        <g
           id="_47579184">
          <path
             id="_462597761"
             class="fil5"
             d="m 118.601,108.029 c 0.8183,-3.4104 0.8133,-6.1448 -3.775,-9.257 l -2.0457,1.8891 c 2.3796,1.7382 3.4837,2.6093 3.1955,8.313 z"
             inkscape:connector-curvature="0"
             style="fill:#a2ce43" />
          <path
             id="_46104720"
             class="fil5"
             d="m 104.461,118.423 c -2.5924,-1.6904 -5.2528,-3.1157 -7.9924,-4.2319 l -0.6607,1.2211 c 2.8587,1.0511 5.5293,2.4499 8.0117,4.1964 z"
             inkscape:connector-curvature="0"
             style="fill:#a2ce43" />
          <path
             id="_69674248"
             class="fil5"
             d="m 108.163,115.645 c -3.5856,-2.338 -7.2652,-4.3094 -11.0544,-5.8532 l -0.9138,1.689 c 3.9539,1.4536 7.6476,3.3883 11.081,5.804 z"
             inkscape:connector-curvature="0"
             style="fill:#a2ce43" />
          <path
             id="_48582896"
             class="fil5"
             d="m 111.204,112.401 c -4.2653,-2.7812 -8.6423,-5.1263 -13.1498,-6.9627 l -1.0869,2.0091 c 4.7034,1.7292 9.0972,4.0306 13.1814,6.9042 z"
             inkscape:connector-curvature="0"
             style="fill:#a2ce43" />
          <path
             id="_45722264"
             class="fil5"
             d="m 115.478,108.236 c -5.2476,-4.6483 -10.7354,-8.7252 -16.5035,-12.1357 l -1.6357,2.1834 c 6.0565,3.304 11.326,7.6583 16.3084,12.3959 z"
             inkscape:connector-curvature="0"
             style="fill:#a2ce43" />
          <path
             id="_45721960"
             class="fil5"
             d="M 132.286,91.064 C 130.8089,78.0881 114.9645,70.6792 104.8137,78.333 l -2.0209,6.9404 c 2.5287,-9.8006 13.1747,-9.1237 18.0248,-5.5192 5.1855,3.8538 9.3739,10.355 8.7326,15.6971 z"
             inkscape:connector-curvature="0"
             style="fill:#a2ce43" />
          <path
             inkscape:connector-curvature="0"
             id="_69655688"
             d="m 112.78,100.661 c -9.0867,-5.3868 -9.4559,-8.466 -11.0132,-16.2052 l 3.196,-6.8875 c -0.8856,14.1 4.3924,17.9803 9.8628,21.2038 z"
             style="fill:#84c225" />
          <path
             id="_48040664"
             class="fil6"
             d="m 133.542,79.4272 c -7.419,-2.1005 -12.5734,-3.998 -18.0182,-8.2507 l 1.4418,-2.9691 c 5.4859,4.9601 10.5993,6.9643 17.9762,8.3372 z"
             inkscape:connector-curvature="0"
             style="fill:#84c225" />
          <path
             id="_67509792"
             class="fil6"
             d="m 96.2146,98.4751 c 9.1867,4.9715 15.5127,6.2166 24.3412,6.1807 l 0.4856,-2.7009 c -10.2835,0.975 -15.8843,-1.0236 -23.5039,-7.1654 z"
             inkscape:connector-curvature="0"
             style="fill:#84c225" />
          <path
             id="_46220496"
             class="fil6"
             d="m 96.0917,103.475 c 6.3186,3.0363 12.7121,5.4573 19.1928,7.1606 l 1.1257,-2.9365 c -6.7292,-1.5221 -13.1377,-3.8805 -19.2257,-7.0751 z"
             inkscape:connector-curvature="0"
             style="fill:#84c225" />
          <path
             id="_67166096"
             class="fil6"
             d="m 96.9582,107.198 c 4.2652,2.7812 8.6423,5.1263 13.1498,6.9627 l 1.0869,-2.0091 c -4.7034,-1.7293 -9.0972,-4.0306 -13.1814,-6.9042 z"
             inkscape:connector-curvature="0"
             style="fill:#84c225" />
          <path
             id="_45719520"
             class="fil6"
             d="m 96.1574,111.516 c 3.5856,2.3381 7.2652,4.3095 11.0544,5.8533 l 0.9137,-1.689 c -3.9539,-1.4537 -7.6476,-3.3884 -11.081,-5.804 z"
             inkscape:connector-curvature="0"
             style="fill:#84c225" />
          <path
             id="_46218560"
             class="fil6"
             d="m 95.9867,115.308 c 2.5925,1.6904 5.2529,3.1157 7.9925,4.2319 l 0.6607,-1.2211 c -2.8588,-1.0511 -5.5293,-2.4499 -8.0118,-4.1964 z"
             inkscape:connector-curvature="0"
             style="fill:#84c225" />
          <path
             id="_47674672"
             class="fil6"
             d="m 103.713,80.9748 c 5.0711,11.0838 13.4626,15.6902 25.7515,11.5439 1.338,-1.5197 1.9821,-3.8163 1.7566,-5.8307 -2.861,2.7482 -10.169,4.5787 -15.929,3.2446 -7.0271,-1.6276 -8.4033,-7.781 -10.5286,-12.3983 z"
             inkscape:connector-curvature="0"
             style="fill:#84c225" />
        </g>
      </g>
    </g>
  </g>
</svg>
