<?xml version="1.0" encoding="UTF-8" standalone="no"?>
<!-- Created with Inkscape (http://www.inkscape.org/) -->

<svg
   xmlns:dc="http://purl.org/dc/elements/1.1/"
   xmlns:cc="http://creativecommons.org/ns#"
   xmlns:rdf="http://www.w3.org/1999/02/22-rdf-syntax-ns#"
   xmlns:svg="http://www.w3.org/2000/svg"
   xmlns="http://www.w3.org/2000/svg"
   xmlns:sodipodi="http://sodipodi.sourceforge.net/DTD/sodipodi-0.dtd"
   xmlns:inkscape="http://www.inkscape.org/namespaces/inkscape"
   width="7.7898688cm"
   height="2.2180014cm"
   viewBox="0 0 276.01897 78.590596"
   id="svg2"
   version="1.1"
   inkscape:version="0.92.3 (2405546, 2018-03-11)"
   sodipodi:docname="logo 8 - Simplificado lateral blanco.svg"
   inkscape:export-filename="D:\esenco\Procesos\Comercial\Publicidad y mercadeo\Registros\Elementos publicitarios\Editables\Logos\logo 4 - grayscale - 2558x1089.png"
   inkscape:export-xdpi="599.8703"
   inkscape:export-ydpi="599.8703">
  <defs
     id="defs4">
    <style
       id="style6"
       type="text/css">
   
    .str1 {stroke:#1F1A17;stroke-width:0.0762}
    .str0 {stroke:#1F1A17;stroke-width:3.3278;stroke-linecap:round;stroke-linejoin:round}
    .fil2 {fill:none}
    .fil3 {fill:#1F1A17}
    .fil6 {fill:#84C225}
    .fil4 {fill:#AAA9A9}
    .fil5 {fill:#A2CE43}
    .fil1 {fill:#1F1A17;fill-rule:nonzero}
    .fil0 {fill:#605D5C;fill-rule:nonzero}
   
  </style>
    <clipPath
       id="id0">
      <path
         id="path9"
         d="m 24.988,112.512 h 39.6373 l 72.8067,5.6927 H 97.7947 Z"
         inkscape:connector-curvature="0" />
    </clipPath>
    <clipPath
       id="id1">
      <path
         id="path12"
         d="m 100.553,102.713 c -0.2119,-0.2001 -0.4282,-1.0356 0.3961,-2.8442 1.0244,-2.2476 2.245,-4.3268 1.8012,-11.0756 -0.4438,-6.7489 2.02,-12.6575 7.798,-15.6093 5.7781,-2.9518 10.7011,-0.9187 12.2576,-0.2684 1.5564,0.6503 6.0637,3.93 7.498,8.3698 1.4344,4.4399 1.2171,7.4689 -1.3085,12.1372 -2.5255,4.6683 -11.0819,8.0568 -12.5141,10.3855 -0.3357,0.5457 -0.6532,0.7273 -0.8444,1.027 -0.6247,0.9791 -0.6286,1.15 -1.3829,2.2022 -0.9852,1.3743 -1.9805,1.7007 -2.3497,1.7215 -0.3691,0.0209 0.1344,0.2456 -0.2368,0.3618 -0.3712,0.1163 -0.5975,0.467 -0.7183,0.531 -0.1208,0.064 -0.5836,0.999 -0.7106,0.9949 -0.1271,-0.004 -0.252,0.1869 -0.152,0.2411 0.1,0.0541 0.3983,0.8384 -0.3308,0.9102 -0.485,0.0478 -0.4707,0.3278 -0.4707,0.3278 0,0 0.576,1.1109 -0.7218,1.28 -0.0859,0.0112 -0.1834,0.2053 -0.081,0.2852 0,0 0.5155,1.0389 -0.449,1.1863 -0.6705,0.1025 -0.2696,0.2552 -0.363,0.3594 -0.0438,0.0489 -0.006,0.0789 -0.004,0.0885 0.004,0.0219 0.5909,0.9958 -0.691,1.1639 -1.2819,0.168 -1.1527,0.4913 -2.8526,0.9401 -1.6998,0.4487 -1.9064,0.1442 -2.7509,0.1774 -0.8445,0.0332 -0.2774,0.7928 -1.9121,-0.1823 -1.6347,-0.9751 -0.4358,-0.8922 -0.4282,-0.9666 0.0076,-0.0744 -0.6768,-0.9696 -0.9854,-1.2636 -0.3087,-0.2941 -0.4127,-0.263 -0.3206,-0.7849 0.0921,-0.522 -0.561,-1.2779 -0.6853,-1.9102 -0.1243,-0.6324 -0.3315,-1.2109 -0.3164,-1.5704 0.0151,-0.3596 0.3665,-0.4417 0.4323,-0.4478 0.0658,-0.006 0.2105,-0.1722 0.1909,-0.3286 -0.0195,-0.1564 -0.5523,-0.8027 0.2741,-1.1087 0.8264,-0.306 0.4463,-0.6698 0.4316,-0.7383 -0.0147,-0.0684 -0.3432,-0.5208 0.3564,-0.7073 0.6996,-0.1866 0.7179,-0.4026 0.6935,-0.5204 -0.0243,-0.1179 -0.5612,-0.8046 0.3864,-1.2431 0.5277,-0.2441 0.382,-0.3249 0.2358,-0.5554 -0.1462,-0.2305 0.2641,-0.9164 0.514,-1.113 0.2499,-0.1967 0.2929,-0.3259 0.2671,-0.5103 -0.0258,-0.1844 -0.1746,-0.6057 -0.0969,-0.7161 0.0389,-0.0553 0.0909,-0.1013 0.1286,-0.0855 0.0693,0.0292 0.1254,-0.0369 0.0154,-0.1408 z"
         inkscape:connector-curvature="0" />
    </clipPath>
    <mask
       id="id2">
      <linearGradient
         y2="97.900902"
         x2="126.133"
         y1="91.644897"
         x1="101.779"
         gradientUnits="userSpaceOnUse"
         id="id3">
        <stop
           id="stop16"
           style="stop-opacity:1; stop-color:white"
           offset="0" />
        <stop
           id="stop18"
           style="stop-opacity:0.501961; stop-color:white"
           offset="0.309804" />
        <stop
           id="stop20"
           style="stop-opacity:0; stop-color:white"
           offset="1" />
      </linearGradient>
      <rect
         id="rect22"
         height="46.291302"
         width="34.4673"
         y="71.627197"
         x="96.722504"
         style="fill:url(#id3)" />
    </mask>
    <clipPath
       id="id4">
      <path
         id="path25"
         d="m 100.553,102.713 c -0.2119,-0.2001 -0.4282,-1.0356 0.3961,-2.8442 1.0244,-2.2476 2.245,-4.3268 1.8012,-11.0756 -0.4438,-6.7489 2.02,-12.6575 7.798,-15.6093 5.7781,-2.9518 10.7011,-0.9187 12.2576,-0.2684 1.5564,0.6503 6.0637,3.93 7.498,8.3698 1.4344,4.4399 1.2171,7.4689 -1.3085,12.1372 -2.5255,4.6683 -11.0819,8.0568 -12.5141,10.3855 -0.3357,0.5457 -0.6532,0.7273 -0.8444,1.027 -0.6247,0.9791 -0.6286,1.15 -1.3829,2.2022 -0.9852,1.3743 -1.9805,1.7007 -2.3497,1.7215 -0.3691,0.0209 0.1344,0.2456 -0.2368,0.3618 -0.3712,0.1163 -0.5975,0.467 -0.7183,0.531 -0.1208,0.064 -0.5836,0.999 -0.7106,0.9949 -0.1271,-0.004 -0.252,0.1869 -0.152,0.2411 0.1,0.0541 0.3983,0.8384 -0.3308,0.9102 -0.485,0.0478 -0.4707,0.3278 -0.4707,0.3278 0,0 0.576,1.1109 -0.7218,1.28 -0.0859,0.0112 -0.1834,0.2053 -0.081,0.2852 0,0 0.5155,1.0389 -0.449,1.1863 -0.6705,0.1025 -0.2696,0.2552 -0.363,0.3594 -0.0438,0.0489 -0.006,0.0789 -0.004,0.0885 0.004,0.0219 0.5909,0.9958 -0.691,1.1639 -1.2819,0.168 -1.1527,0.4913 -2.8526,0.9401 -1.6998,0.4487 -1.9064,0.1442 -2.7509,0.1774 -0.8445,0.0332 -0.2774,0.7928 -1.9121,-0.1823 -1.6347,-0.9751 -0.4358,-0.8922 -0.4282,-0.9666 0.0076,-0.0744 -0.6768,-0.9696 -0.9854,-1.2636 -0.3087,-0.2941 -0.4127,-0.263 -0.3206,-0.7849 0.0921,-0.522 -0.561,-1.2779 -0.6853,-1.9102 -0.1243,-0.6324 -0.3315,-1.2109 -0.3164,-1.5704 0.0151,-0.3596 0.3665,-0.4417 0.4323,-0.4478 0.0658,-0.006 0.2105,-0.1722 0.1909,-0.3286 -0.0195,-0.1564 -0.5523,-0.8027 0.2741,-1.1087 0.8264,-0.306 0.4463,-0.6698 0.4316,-0.7383 -0.0147,-0.0684 -0.3432,-0.5208 0.3564,-0.7073 0.6996,-0.1866 0.7179,-0.4026 0.6935,-0.5204 -0.0243,-0.1179 -0.5612,-0.8046 0.3864,-1.2431 0.5277,-0.2441 0.382,-0.3249 0.2358,-0.5554 -0.1462,-0.2305 0.2641,-0.9164 0.514,-1.113 0.2499,-0.1967 0.2929,-0.3259 0.2671,-0.5103 -0.0258,-0.1844 -0.1746,-0.6057 -0.0969,-0.7161 0.0389,-0.0553 0.0909,-0.1013 0.1286,-0.0855 0.0693,0.0292 0.1254,-0.0369 0.0154,-0.1408 z"
         inkscape:connector-curvature="0" />
    </clipPath>
    <style
       id="style6-8"
       type="text/css">
   
    .str1 {stroke:#1F1A17;stroke-width:0.0762}
    .str0 {stroke:#1F1A17;stroke-width:3.3278;stroke-linecap:round;stroke-linejoin:round}
    .fil2 {fill:none}
    .fil3 {fill:#1F1A17}
    .fil6 {fill:#84C225}
    .fil4 {fill:#AAA9A9}
    .fil5 {fill:#A2CE43}
    .fil1 {fill:#1F1A17;fill-rule:nonzero}
    .fil0 {fill:#605D5C;fill-rule:nonzero}
   
  </style>
    <clipPath
       id="id0-1">
      <path
         id="path9-8"
         d="m 24.988,112.512 h 39.6373 l 72.8067,5.6927 H 97.7947 Z"
         inkscape:connector-curvature="0" />
    </clipPath>
    <clipPath
       id="id1-9">
      <path
         id="path12-1"
         d="m 100.553,102.713 c -0.2119,-0.2001 -0.4282,-1.0356 0.3961,-2.8442 1.0244,-2.2476 2.245,-4.3268 1.8012,-11.0756 -0.4438,-6.7489 2.02,-12.6575 7.798,-15.6093 5.7781,-2.9518 10.7011,-0.9187 12.2576,-0.2684 1.5564,0.6503 6.0637,3.93 7.498,8.3698 1.4344,4.4399 1.2171,7.4689 -1.3085,12.1372 -2.5255,4.6683 -11.0819,8.0568 -12.5141,10.3855 -0.3357,0.5457 -0.6532,0.7273 -0.8444,1.027 -0.6247,0.9791 -0.6286,1.15 -1.3829,2.2022 -0.9852,1.3743 -1.9805,1.7007 -2.3497,1.7215 -0.3691,0.0209 0.1344,0.2456 -0.2368,0.3618 -0.3712,0.1163 -0.5975,0.467 -0.7183,0.531 -0.1208,0.064 -0.5836,0.999 -0.7106,0.9949 -0.1271,-0.004 -0.252,0.1869 -0.152,0.2411 0.1,0.0541 0.3983,0.8384 -0.3308,0.9102 -0.485,0.0478 -0.4707,0.3278 -0.4707,0.3278 0,0 0.576,1.1109 -0.7218,1.28 -0.0859,0.0112 -0.1834,0.2053 -0.081,0.2852 0,0 0.5155,1.0389 -0.449,1.1863 -0.6705,0.1025 -0.2696,0.2552 -0.363,0.3594 -0.0438,0.0489 -0.006,0.0789 -0.004,0.0885 0.004,0.0219 0.5909,0.9958 -0.691,1.1639 -1.2819,0.168 -1.1527,0.4913 -2.8526,0.9401 -1.6998,0.4487 -1.9064,0.1442 -2.7509,0.1774 -0.8445,0.0332 -0.2774,0.7928 -1.9121,-0.1823 -1.6347,-0.9751 -0.4358,-0.8922 -0.4282,-0.9666 0.0076,-0.0744 -0.6768,-0.9696 -0.9854,-1.2636 -0.3087,-0.2941 -0.4127,-0.263 -0.3206,-0.7849 0.0921,-0.522 -0.561,-1.2779 -0.6853,-1.9102 -0.1243,-0.6324 -0.3315,-1.2109 -0.3164,-1.5704 0.0151,-0.3596 0.3665,-0.4417 0.4323,-0.4478 0.0658,-0.006 0.2105,-0.1722 0.1909,-0.3286 -0.0195,-0.1564 -0.5523,-0.8027 0.2741,-1.1087 0.8264,-0.306 0.4463,-0.6698 0.4316,-0.7383 -0.0147,-0.0684 -0.3432,-0.5208 0.3564,-0.7073 0.6996,-0.1866 0.7179,-0.4026 0.6935,-0.5204 -0.0243,-0.1179 -0.5612,-0.8046 0.3864,-1.2431 0.5277,-0.2441 0.382,-0.3249 0.2358,-0.5554 -0.1462,-0.2305 0.2641,-0.9164 0.514,-1.113 0.2499,-0.1967 0.2929,-0.3259 0.2671,-0.5103 -0.0258,-0.1844 -0.1746,-0.6057 -0.0969,-0.7161 0.0389,-0.0553 0.0909,-0.1013 0.1286,-0.0855 0.0693,0.0292 0.1254,-0.0369 0.0154,-0.1408 z"
         inkscape:connector-curvature="0" />
    </clipPath>
    <mask
       id="id2-1">
      <linearGradient
         y2="97.900902"
         x2="126.133"
         y1="91.644897"
         x1="101.779"
         gradientUnits="userSpaceOnUse"
         id="linearGradient4626">
        <stop
           id="stop16-7"
           style="stop-opacity:1; stop-color:white"
           offset="0" />
        <stop
           id="stop18-2"
           style="stop-opacity:0.501961; stop-color:white"
           offset="0.309804" />
        <stop
           id="stop20-2"
           style="stop-opacity:0; stop-color:white"
           offset="1" />
      </linearGradient>
      <rect
         id="rect22-5"
         height="46.291302"
         width="34.4673"
         y="71.627197"
         x="96.722504"
         style="fill:url(#id3)" />
    </mask>
    <clipPath
       id="id4-2">
      <path
         id="path25-0"
         d="m 100.553,102.713 c -0.2119,-0.2001 -0.4282,-1.0356 0.3961,-2.8442 1.0244,-2.2476 2.245,-4.3268 1.8012,-11.0756 -0.4438,-6.7489 2.02,-12.6575 7.798,-15.6093 5.7781,-2.9518 10.7011,-0.9187 12.2576,-0.2684 1.5564,0.6503 6.0637,3.93 7.498,8.3698 1.4344,4.4399 1.2171,7.4689 -1.3085,12.1372 -2.5255,4.6683 -11.0819,8.0568 -12.5141,10.3855 -0.3357,0.5457 -0.6532,0.7273 -0.8444,1.027 -0.6247,0.9791 -0.6286,1.15 -1.3829,2.2022 -0.9852,1.3743 -1.9805,1.7007 -2.3497,1.7215 -0.3691,0.0209 0.1344,0.2456 -0.2368,0.3618 -0.3712,0.1163 -0.5975,0.467 -0.7183,0.531 -0.1208,0.064 -0.5836,0.999 -0.7106,0.9949 -0.1271,-0.004 -0.252,0.1869 -0.152,0.2411 0.1,0.0541 0.3983,0.8384 -0.3308,0.9102 -0.485,0.0478 -0.4707,0.3278 -0.4707,0.3278 0,0 0.576,1.1109 -0.7218,1.28 -0.0859,0.0112 -0.1834,0.2053 -0.081,0.2852 0,0 0.5155,1.0389 -0.449,1.1863 -0.6705,0.1025 -0.2696,0.2552 -0.363,0.3594 -0.0438,0.0489 -0.006,0.0789 -0.004,0.0885 0.004,0.0219 0.5909,0.9958 -0.691,1.1639 -1.2819,0.168 -1.1527,0.4913 -2.8526,0.9401 -1.6998,0.4487 -1.9064,0.1442 -2.7509,0.1774 -0.8445,0.0332 -0.2774,0.7928 -1.9121,-0.1823 -1.6347,-0.9751 -0.4358,-0.8922 -0.4282,-0.9666 0.0076,-0.0744 -0.6768,-0.9696 -0.9854,-1.2636 -0.3087,-0.2941 -0.4127,-0.263 -0.3206,-0.7849 0.0921,-0.522 -0.561,-1.2779 -0.6853,-1.9102 -0.1243,-0.6324 -0.3315,-1.2109 -0.3164,-1.5704 0.0151,-0.3596 0.3665,-0.4417 0.4323,-0.4478 0.0658,-0.006 0.2105,-0.1722 0.1909,-0.3286 -0.0195,-0.1564 -0.5523,-0.8027 0.2741,-1.1087 0.8264,-0.306 0.4463,-0.6698 0.4316,-0.7383 -0.0147,-0.0684 -0.3432,-0.5208 0.3564,-0.7073 0.6996,-0.1866 0.7179,-0.4026 0.6935,-0.5204 -0.0243,-0.1179 -0.5612,-0.8046 0.3864,-1.2431 0.5277,-0.2441 0.382,-0.3249 0.2358,-0.5554 -0.1462,-0.2305 0.2641,-0.9164 0.514,-1.113 0.2499,-0.1967 0.2929,-0.3259 0.2671,-0.5103 -0.0258,-0.1844 -0.1746,-0.6057 -0.0969,-0.7161 0.0389,-0.0553 0.0909,-0.1013 0.1286,-0.0855 0.0693,0.0292 0.1254,-0.0369 0.0154,-0.1408 z"
         inkscape:connector-curvature="0" />
    </clipPath>
    <filter
       style="color-interpolation-filters:sRGB"
       inkscape:label="Greyscale"
       id="filter930">
      <feColorMatrix
         values="0.21 0.72 0.072 0 0 0.21 0.72 0.072 0 0 0.21 0.72 0.072 0 0 0 0 0 1 0 "
         id="feColorMatrix928" />
    </filter>
    <pattern
       y="0"
       x="0"
       height="6"
       width="6"
       patternUnits="userSpaceOnUse"
       id="EMFhbasepattern" />
  </defs>
  <sodipodi:namedview
     id="base"
     pagecolor="#ffffff"
     bordercolor="#666666"
     borderopacity="1.0"
     inkscape:pageopacity="0"
     inkscape:pageshadow="2"
     inkscape:zoom="2.8"
     inkscape:cx="103.00236"
     inkscape:cy="19.640278"
     inkscape:document-units="px"
     inkscape:current-layer="layer1"
     showgrid="false"
     inkscape:window-width="1299"
     inkscape:window-height="713"
     inkscape:window-x="67"
     inkscape:window-y="27"
     inkscape:window-maximized="1"
     units="cm"
     fit-margin-top="0.5"
     fit-margin-left="0.5"
     fit-margin-right="0.5"
     fit-margin-bottom="0.5"
     inkscape:pagecheckerboard="true" />
  <metadata
     id="metadata7">
    <rdf:RDF>
      <cc:Work
         rdf:about="">
        <dc:format>image/svg+xml</dc:format>
        <dc:type
           rdf:resource="http://purl.org/dc/dcmitype/StillImage" />
        <dc:title></dc:title>
      </cc:Work>
    </rdf:RDF>
  </metadata>
  <g
     inkscape:label="Capa 1"
     inkscape:groupmode="layer"
     id="layer1"
     transform="translate(-215.06974,-109.02042)">
    <g
       id="g4794"
       transform="matrix(1.0498579,0,0,1.0498579,195.14611,65.646377)"
       style="fill:#ffffff;fill-opacity:1">
      <path
         class="fil1"
         d="m 153.64575,67.318746 -23.47811,22.740163 c 2.66351,1.72002 5.57899,2.425871 8.74688,2.092234 3.18039,-0.320827 5.92875,-1.617096 8.25742,-3.875998 0.25317,-0.24111 0.83545,-0.812089 1.74669,-1.687771 0.73418,-0.710522 1.31631,-1.268994 1.7467,-1.70028 1.4557,-1.256486 2.8243,-1.232977 4.09329,0.07052 1.1929,1.240512 1.19456,2.545823 -0.008,3.92859 -0.6834,0.748647 -1.87313,1.928731 -3.54372,3.55291 -3.86032,3.743539 -8.48346,5.561811 -13.85676,5.480135 -5.37329,-0.09433 -9.92545,-2.06526 -13.66899,-5.925586 -3.69275,-3.822351 -5.49822,-8.420173 -5.41654,-13.793616 0.0815,-5.373293 2.06541,-9.925454 5.92558,-13.668842 2.79719,-2.715655 6.12782,-4.430853 9.99207,-5.132785 3.86424,-0.714741 7.61607,-0.276222 11.24237,1.277884 1.95284,0.859257 3.36047,1.6938 4.21069,2.490971 0,0 1.33243,1.379753 4.00996,4.151466 z m -8.70559,0.391654 c -2.73976,-1.872222 -5.60506,-2.793413 -8.60839,-2.764179 -3.15553,0.09283 -5.90388,1.262212 -8.23271,3.521114 -2.3668,2.284218 -3.73178,5.086673 -4.12042,8.369238 -0.37583,3.295526 0.33785,6.336077 2.11559,9.121653 z"
         id="path80"
         inkscape:connector-curvature="0"
         style="clip-rule:evenodd;fill:#ffffff;fill-opacity:1;fill-rule:nonzero;image-rendering:optimizeQuality;shape-rendering:geometricPrecision;text-rendering:geometricPrecision" />
      <path
         class="fil2 str0"
         d="m 113.30152,71.711474 c -1.58635,-4.778806 -6.60642,-11.235889 -17.122293,-11.009095 -6.143641,0.132611 -11.958768,3.62871 -14.875751,7.79193 -1.760406,2.512218 -2.633074,5.155842 -3.065415,7.171373 -0.432492,2.01538 -0.424957,3.402819 -0.424957,3.402819 0,0 36.185676,0.109404 36.185676,0.109404 0,0 -0.15265,5.613649 -4.15719,10.392454 -2.74007,3.269757 -7.85673,6.164738 -13.443706,6.115159 C 83.061622,95.567224 80.764746,87.267757 80.764746,87.267757"
         id="path82"
         inkscape:connector-curvature="0"
         style="clip-rule:evenodd;fill:none;fill-opacity:1;fill-rule:evenodd;stroke:#ffffff;stroke-width:5.01479197;stroke-linecap:round;stroke-linejoin:round;stroke-opacity:1;image-rendering:optimizeQuality;shape-rendering:geometricPrecision;text-rendering:geometricPrecision" />
      <path
         class="fil3 str1"
         d="m 77.812953,76.791365 c 1.284364,0 2.325961,1.019897 2.325961,2.277588 0,1.257541 -1.041597,2.277437 -2.325961,2.277437 -1.284515,0 -2.326111,-1.019896 -2.326111,-2.277437 0,-1.257691 1.041596,-2.277588 2.326111,-2.277588 z"
         id="path84"
         inkscape:connector-curvature="0"
         style="clip-rule:evenodd;fill:#ffffff;fill-opacity:1;fill-rule:evenodd;stroke:none;stroke-width:0.11482877;image-rendering:optimizeQuality;shape-rendering:geometricPrecision;text-rendering:geometricPrecision" />
      <path
         class="fil1"
         d="m 196.78339,95.426174 c 0,0.760402 -0.29144,1.432044 -0.87447,2.014928 -0.58289,0.583035 -1.25453,0.874477 -2.01493,0.874477 -0.7604,0 -1.41939,-0.253467 -1.97696,-0.760401 -0.55756,-0.506935 -0.83635,-1.140452 -0.83635,-1.900853 V 79.610698 c 0,-3.801857 -1.33063,-7.058805 -4.00454,-9.770692 -2.67406,-2.712038 -5.90554,-4.067982 -9.68193,-4.067982 -3.82718,0 -7.08412,1.355944 -9.75804,4.067982 -2.67391,2.711887 -4.00454,5.968835 -4.00454,9.770692 0,-0.05078 0,5.195775 0,15.739376 0,0.811185 -0.29159,1.508144 -0.87447,2.091028 -0.58289,0.583035 -1.25453,0.874477 -2.01493,0.874477 -0.7604,0 -1.41939,-0.266125 -1.97696,-0.798376 -0.55756,-0.532251 -0.83635,-1.178577 -0.83635,-1.938979 V 79.534597 c 0,-5.322509 1.87554,-9.871958 5.63927,-13.648498 3.75107,-3.776389 8.32599,-5.664735 13.71194,-5.664735 5.33517,0 9.90994,1.901004 13.71179,5.70271 3.81452,3.801857 5.71537,8.363964 5.71537,13.686624 0,0 0.0255,5.271725 0.0761,15.815476 z"
         id="path86"
         inkscape:connector-curvature="0"
         style="clip-rule:evenodd;fill:#ffffff;fill-opacity:1;fill-rule:nonzero;image-rendering:optimizeQuality;shape-rendering:geometricPrecision;text-rendering:geometricPrecision" />
      <path
         class="fil1"
         d="m 225.75279,62.211729 c 0,0.760402 -0.26612,1.406728 -0.79838,1.938979 -0.53225,0.532251 -1.17857,0.798376 -1.93897,0.798376 -0.6082,0 -1.45736,0 -2.54718,0 -1.08982,0 -1.91351,0 -2.47123,0 -3.85249,0 -7.12195,1.343286 -9.80867,4.017199 -2.68657,2.686571 -4.02986,5.918201 -4.02986,9.707249 0,3.789199 1.35595,7.033337 4.06799,9.745375 2.71188,2.69923 5.96883,4.055324 9.77054,4.055324 0.4563,0 1.26733,0 2.43325,0 1.01372,0 1.82491,0 2.43311,0 0.7604,0 1.43204,0.278784 2.01492,0.836351 0.58304,0.557568 0.87448,1.216552 0.87448,1.976954 0,1.774119 -0.93777,2.711887 -2.8133,2.813304 -1.41939,0.101417 -3.09224,0.15205 -5.01841,0.15205 -5.3733,0 -9.96072,-1.900852 -13.76258,-5.702709 -3.80185,-3.801857 -5.70271,-8.389281 -5.70271,-13.762574 0,-5.373142 1.90086,-9.960716 5.70271,-13.762573 3.80186,-3.801706 8.38928,-5.70271 13.76258,-5.70271 h 4.94231 c 0.7604,0 1.43204,0.291442 2.01492,0.874477 0.58304,0.582884 0.87448,1.254527 0.87448,2.014928 z m -7.83171,-2.889405 h 4.94231 z m 0.076,33.227857 h 4.94246 z"
         id="path88"
         inkscape:connector-curvature="0"
         style="clip-rule:evenodd;fill:#ffffff;fill-opacity:1;fill-rule:nonzero;image-rendering:optimizeQuality;shape-rendering:geometricPrecision;text-rendering:geometricPrecision" />
      <path
         class="fil3 str1"
         d="m 113.99878,76.899865 c 1.28437,0 2.32596,1.019896 2.32596,2.277437 0,1.257691 -1.04159,2.277588 -2.32596,2.277588 -1.28451,0 -2.32611,-1.019897 -2.32611,-2.277588 0,-1.257541 1.0416,-2.277437 2.32611,-2.277437 z"
         id="path90"
         inkscape:connector-curvature="0"
         style="clip-rule:evenodd;fill:#ffffff;fill-opacity:1;fill-rule:evenodd;stroke:none;stroke-width:0.11482877;image-rendering:optimizeQuality;shape-rendering:geometricPrecision;text-rendering:geometricPrecision" />
      <path
         class="fil1"
         d="m 265.01308,78.455026 c 0,5.434474 -1.92255,10.074189 -5.76766,13.919295 -3.84511,3.845106 -8.4592,5.767659 -13.84229,5.767659 -5.43448,0 -10.07419,-1.922553 -13.9193,-5.767659 -3.8451,-3.845106 -5.76766,-8.484821 -5.76766,-13.919295 0,-5.383088 1.92256,-9.997185 5.76766,-13.842291 3.84511,-3.845105 8.48482,-5.767658 13.9193,-5.767658 5.38309,0 9.99718,1.922553 13.84229,5.767658 3.84511,3.845106 5.76766,8.459203 5.76766,13.842291 z m -5.61395,0 c 0,-3.845106 -1.35851,-7.138973 -4.07567,-9.881904 -2.71731,-2.74278 -5.99837,-4.114245 -9.84348,-4.114245 -3.89634,0 -7.20317,1.371465 -9.92033,4.114245 -2.71716,2.742931 -4.07582,6.036798 -4.07582,9.881904 0,3.845106 1.35866,7.126315 4.07582,9.843477 2.71716,2.717162 6.02399,4.075818 9.92033,4.075818 3.84511,0 7.12617,-1.358656 9.84348,-4.075818 2.71716,-2.717162 4.07567,-5.998371 4.07567,-9.843477 z"
         id="path92"
         inkscape:connector-curvature="0"
         style="clip-rule:evenodd;fill:#ffffff;fill-opacity:1;fill-rule:nonzero;image-rendering:optimizeQuality;shape-rendering:geometricPrecision;text-rendering:geometricPrecision" />
      <path
         class="fil1"
         d="M 71.235917,67.318746 47.757804,90.058909 c 2.663515,1.72002 5.578991,2.425871 8.746878,2.092234 3.180395,-0.320827 5.928751,-1.617096 8.257424,-3.875998 0.253166,-0.24111 0.835447,-0.812089 1.746693,-1.687771 0.734181,-0.710522 1.316312,-1.268994 1.746694,-1.70028 1.455703,-1.256486 2.824305,-1.232977 4.093299,0.07052 1.192893,1.240512 1.19455,2.545823 -0.0075,3.92859 -0.683397,0.748647 -1.873125,1.928731 -3.543718,3.55291 -3.860326,3.743539 -8.483465,5.561811 -13.856758,5.480135 -5.373293,-0.09433 -9.925455,-2.06526 -13.668994,-5.925586 -3.692754,-3.822351 -5.498218,-8.420173 -5.416542,-13.793616 0.08153,-5.373293 2.065411,-9.925454 5.925586,-13.668842 2.797181,-2.715655 6.127818,-4.430853 9.992062,-5.132785 3.864244,-0.714741 7.616071,-0.276222 11.242369,1.277884 1.952843,0.859257 3.360475,1.6938 4.21069,2.490971 0,0 1.332435,1.379753 4.009965,4.151466 z M 62.530329,67.7104 c -2.739766,-1.872222 -5.60506,-2.793413 -8.60839,-2.764179 -3.155531,0.09283 -5.903886,1.262212 -8.23271,3.521114 -2.366799,2.284218 -3.731784,5.086673 -4.120424,8.369238 -0.375831,3.295526 0.337856,6.336077 2.115592,9.121653 z"
         id="path94"
         inkscape:connector-curvature="0"
         style="clip-rule:evenodd;fill:#ffffff;fill-opacity:1;fill-rule:nonzero;image-rendering:optimizeQuality;shape-rendering:geometricPrecision;text-rendering:geometricPrecision" />
      <path
         class="fil3"
         d="m 160.68466,92.368595 c 1.91306,0 3.46431,1.551394 3.46431,3.464302 0,1.913059 -1.55125,3.464453 -3.46431,3.464453 -1.91306,0 -3.46445,-1.551394 -3.46445,-3.464453 0,-1.912908 1.55139,-3.464302 3.46445,-3.464302 z"
         id="path123"
         inkscape:connector-curvature="0"
         style="clip-rule:evenodd;fill:#ffffff;fill-opacity:1;fill-rule:evenodd;image-rendering:optimizeQuality;shape-rendering:geometricPrecision;text-rendering:geometricPrecision" />
      <path
         class="fil3"
         d="m 193.99555,92.183241 c 1.91306,0 3.46431,1.551394 3.46431,3.464302 0,1.91306 -1.55125,3.464453 -3.46431,3.464453 -1.91305,0 -3.46445,-1.551393 -3.46445,-3.464453 0,-1.912908 1.5514,-3.464302 3.46445,-3.464302 z"
         id="path125"
         inkscape:connector-curvature="0"
         style="clip-rule:evenodd;fill:#ffffff;fill-opacity:1;fill-rule:evenodd;image-rendering:optimizeQuality;shape-rendering:geometricPrecision;text-rendering:geometricPrecision" />
      <path
         class="fil3"
         d="m 223.88268,91.812534 c 1.91306,0 3.46445,1.551394 3.46445,3.464302 0,1.91306 -1.55139,3.464453 -3.46445,3.464453 -1.91291,0 -3.4643,-1.551393 -3.4643,-3.464453 0,-1.912908 1.55139,-3.464302 3.4643,-3.464302 z"
         id="path127"
         inkscape:connector-curvature="0"
         style="clip-rule:evenodd;fill:#ffffff;fill-opacity:1;fill-rule:evenodd;image-rendering:optimizeQuality;shape-rendering:geometricPrecision;text-rendering:geometricPrecision" />
      <path
         class="fil3"
         d="m 223.37785,58.664395 c 1.91306,0 3.46446,1.551394 3.46446,3.464453 0,1.913059 -1.5514,3.464453 -3.46446,3.464453 -1.91305,0 -3.46445,-1.551394 -3.46445,-3.464453 0,-1.913059 1.5514,-3.464453 3.46445,-3.464453 z"
         id="path129"
         inkscape:connector-curvature="0"
         style="clip-rule:evenodd;fill:#ffffff;fill-opacity:1;fill-rule:evenodd;image-rendering:optimizeQuality;shape-rendering:geometricPrecision;text-rendering:geometricPrecision" />
      <path
         class="fil3"
         d="m 71.114156,82.559928 c 1.91306,0 3.464454,1.551394 3.464454,3.464302 0,1.91306 -1.551394,3.464453 -3.464454,3.464453 -1.912908,0 -3.464302,-1.551393 -3.464302,-3.464453 0,-1.912908 1.551394,-3.464302 3.464302,-3.464302 z"
         id="path131"
         inkscape:connector-curvature="0"
         style="clip-rule:evenodd;fill:#ffffff;fill-opacity:1;fill-rule:evenodd;image-rendering:optimizeQuality;shape-rendering:geometricPrecision;text-rendering:geometricPrecision" />
      <path
         class="fil3"
         d="m 80.764746,83.803153 c 1.913059,0 3.464453,1.551394 3.464453,3.464302 0,1.913059 -1.551394,3.464453 -3.464453,3.464453 -1.912909,0 -3.464303,-1.551394 -3.464303,-3.464453 0,-1.912908 1.551394,-3.464302 3.464303,-3.464302 z"
         id="path133"
         inkscape:connector-curvature="0"
         style="clip-rule:evenodd;fill:#ffffff;fill-opacity:1;fill-rule:evenodd;image-rendering:optimizeQuality;shape-rendering:geometricPrecision;text-rendering:geometricPrecision" />
      <path
         class="fil3"
         d="m 113.30152,68.247021 c 1.91306,0 3.46446,1.551243 3.46446,3.464302 0,1.913059 -1.5514,3.464453 -3.46446,3.464453 -1.91306,0 -3.46445,-1.551394 -3.46445,-3.464453 0,-1.913059 1.55139,-3.464302 3.46445,-3.464302 z"
         id="path135"
         inkscape:connector-curvature="0"
         style="clip-rule:evenodd;fill:#ffffff;fill-opacity:1;fill-rule:evenodd;image-rendering:optimizeQuality;shape-rendering:geometricPrecision;text-rendering:geometricPrecision" />
      <path
         class="fil3"
         d="m 153.24189,82.597602 c 1.91306,0 3.46445,1.551393 3.46445,3.464453 0,1.913059 -1.55139,3.464302 -3.46445,3.464302 -1.91306,0 -3.46445,-1.551243 -3.46445,-3.464302 0,-1.91306 1.55139,-3.464453 3.46445,-3.464453 z"
         id="path137"
         inkscape:connector-curvature="0"
         style="clip-rule:evenodd;fill:#ffffff;fill-opacity:1;fill-rule:evenodd;image-rendering:optimizeQuality;shape-rendering:geometricPrecision;text-rendering:geometricPrecision" />
    </g>
  </g>
</svg>
